<svg width="1594" height="103" viewBox="0 0 1594 103" fill="none" xmlns="http://www.w3.org/2000/svg">
<g clip-path="url(#clip0_9_1061)">
<rect width="1594" height="103" fill="white"/>
<path d="M0 0V98H56V42.56H78.4C98.7467 42.56 115.733 36.2133 129.36 23.52C136.451 16.8174 141.697 8.97739 145.098 0H0Z" fill="black"/>
<path d="M172.124 0V97.7202H228.124V36.1202H242.124L273.204 97.7202H333.124L294.484 24.6402C304.004 18.8536 311.377 11.2936 316.604 1.96022C316.979 1.31221 317.342 0.658806 317.692 0H172.124Z" fill="black"/>
<path d="M342.989 2.28882e-05C342.989 28.9334 352.976 53.2934 372.949 73.08C393.109 92.68 417.749 102.48 446.869 102.48C475.989 102.48 500.536 92.68 520.509 73.08C540.669 53.2934 550.749 28.9334 550.749 2.28882e-05H494.749C494.749 13.6267 490.176 25.0134 481.029 34.16C472.069 43.12 460.682 47.6 446.869 47.6C433.056 47.6 421.576 43.12 412.429 34.16C403.469 25.0134 398.989 13.6267 398.989 2.28882e-05H342.989Z" fill="black"/>
<path d="M603.87 0V98H659.87V0H603.87Z" fill="black"/>
<path d="M712.939 2.28882e-05C712.939 28.9334 722.926 53.2934 742.899 73.08C763.059 92.68 787.699 102.48 816.819 102.48C845.939 102.48 870.486 92.68 890.459 73.08C910.619 53.2934 920.699 28.9334 920.699 2.28882e-05H864.699C864.699 13.6267 860.126 25.0134 850.979 34.16C842.019 43.12 830.632 47.6 816.819 47.6C803.006 47.6 791.526 43.12 782.379 34.16C773.419 25.0134 768.939 13.6267 768.939 2.28882e-05H712.939Z" fill="black"/>
<path d="M973.82 0V98H1029.82V0H973.82Z" fill="black"/>
<path d="M1137.88 0L1150.73 23.52V98H1206.73V23.52L1219.57 0H1137.88Z" fill="black"/>
<path d="M1292.64 0V98H1348.64V42.56H1371.04C1391.38 42.56 1408.37 36.2133 1422 23.52C1429.09 16.8174 1434.33 8.97739 1437.74 0H1292.64Z" fill="black"/>
<path d="M1464.76 0V98H1593.56V46.48H1520.76V24.64H1585.16V0H1464.76Z" fill="black"/>
</g>
<defs>
<clipPath id="clip0_9_1061">
<rect width="1594" height="103" fill="white"/>
</clipPath>
</defs>
</svg>
