<svg width="1594" height="103" viewBox="0 0 1594 103" fill="none" xmlns="http://www.w3.org/2000/svg">
<rect width="1594" height="103" fill="white"/>
<path d="M550.749 102.48H494.749C494.749 88.8533 490.176 77.56 481.029 68.6C472.069 59.4533 460.682 54.88 446.869 54.88C433.056 54.88 421.576 59.4533 412.429 68.6C403.469 77.56 398.989 88.8533 398.989 102.48H342.989C342.989 73.5467 352.976 49.28 372.949 29.68C393.109 9.89334 417.749 0 446.869 0C475.989 0 500.536 9.89334 520.509 29.68C540.669 49.28 550.749 73.5467 550.749 102.48Z" fill="black"/>
<path fill-rule="evenodd" clip-rule="evenodd" d="M317.692 102.48C322.38 93.6499 324.724 83.85 324.724 73.0802C324.724 52.3602 317.724 35.7469 303.724 23.2402C289.724 10.5469 271.99 4.2002 250.524 4.2002H172.124V102.48H317.692ZM228.124 55.7202V92.1202H249.404C255.377 92.3069 260.044 90.8135 263.404 87.6402C266.95 84.4669 268.724 79.9869 268.724 74.2002C268.724 68.4135 266.95 63.9335 263.404 60.7602C260.044 57.4002 255.377 55.7202 249.404 55.7202H228.124Z" fill="black"/>
<path fill-rule="evenodd" clip-rule="evenodd" d="M145.098 102.48C148.233 94.2061 149.8 84.9661 149.8 74.76C149.8 53.48 142.987 36.4933 129.36 23.8C115.733 10.92 98.7467 4.47998 78.4 4.47998H0V102.48H145.098ZM89.32 86.52C86.3333 89.32 82.6933 90.72 78.4 90.72H56V58.8H78.4C82.6933 58.8 86.3333 60.2933 89.32 63.28C92.3067 66.08 93.8 69.9067 93.8 74.76C93.8 79.6133 92.3067 83.5333 89.32 86.52Z" fill="black"/>
<path d="M1585.16 102.48V76.72H1520.76V55.44H1592.16V4.47998H1464.76V102.48H1585.16Z" fill="black"/>
<path fill-rule="evenodd" clip-rule="evenodd" d="M1437.74 102.48C1440.87 94.2061 1442.44 84.9661 1442.44 74.76C1442.44 53.48 1435.62 36.4933 1422 23.8C1408.37 10.92 1391.38 4.47998 1371.04 4.47998H1292.64V102.48H1437.74ZM1371.04 90.72C1375.33 90.72 1378.97 89.32 1381.96 86.52C1384.94 83.5333 1386.44 79.6133 1386.44 74.76C1386.44 69.9067 1384.94 66.08 1381.96 63.28C1378.97 60.2933 1375.33 58.8 1371.04 58.8H1348.64V90.72H1371.04Z" fill="black"/>
<path d="M1219.57 102.48L1273.09 4.47998H1210.93L1178.73 73.36L1146.53 4.47998H1084.37L1137.88 102.48H1219.57Z" fill="black"/>
<path d="M1029.82 102.48V58.8H1076.02V4.47998H927.62V58.8H973.82V102.48H1029.82Z" fill="black"/>
<path d="M920.699 102.48C920.699 73.5467 910.619 49.28 890.459 29.68C870.486 9.89334 845.939 0 816.819 0C787.699 0 763.059 9.89334 742.899 29.68C722.926 49.28 712.939 73.5467 712.939 102.48H768.939C768.939 88.8533 773.419 77.56 782.379 68.6C791.526 59.4533 803.006 54.88 816.819 54.88C830.632 54.88 842.019 59.4533 850.979 68.6C860.126 77.56 864.699 88.8533 864.699 102.48H920.699Z" fill="black"/>
<path d="M659.87 102.48V58.8H706.07V4.47998H557.67V58.8H603.87V102.48H659.87Z" fill="black"/>
</svg>
