<svg width="125" height="1895" viewBox="0 0 125 1895" fill="none" xmlns="http://www.w3.org/2000/svg">
<path fill-rule="evenodd" clip-rule="evenodd" d="M124.591 0.395508L5.70868 0.395503L5.70868 66.9743L71.6217 66.9743L71.6217 93.6058C71.6217 117.796 79.1673 137.992 94.2585 154.193C102.812 163.241 112.922 169.763 124.591 173.758L124.591 0.395508ZM124.591 205.016L6.03934 205.016L6.03934 271.595L79.276 271.595L79.276 288.239L6.03934 325.191L6.03934 396.43L92.9247 350.491C99.8045 361.809 108.793 370.575 119.889 376.789C121.431 377.683 122.998 378.515 124.591 379.285L124.591 205.016ZM124.591 408.173C123.795 408.16 122.996 408.154 122.195 408.154C87.7955 408.154 58.8337 420.027 35.3092 443.773C12.0066 467.742 0.35534 497.036 0.355339 531.657C0.355337 566.278 12.0066 595.462 35.3092 619.208C58.8337 643.177 87.7955 655.161 122.195 655.161C122.996 655.161 123.795 655.154 124.591 655.141L124.591 588.542C123.799 588.569 123 588.582 122.195 588.582C105.994 588.582 92.456 583.145 81.5815 572.27C70.9289 561.618 65.6026 548.08 65.6026 531.657C65.6026 515.234 70.9289 501.586 81.5815 490.711C92.456 480.059 105.994 474.732 122.195 474.732C123 474.732 123.799 474.745 124.591 474.772L124.591 408.173ZM124.591 718.322L5.70924 718.322L5.70924 784.901L124.591 784.901L124.591 718.322ZM124.591 848.069C123.795 848.056 122.996 848.05 122.195 848.05C87.7955 848.05 58.8337 859.923 35.3092 883.67C12.0066 907.638 0.355336 936.933 0.355335 971.554C0.355333 1006.17 12.0066 1035.36 35.3092 1059.1C58.8337 1083.07 87.7955 1095.06 122.195 1095.06C122.996 1095.06 123.795 1095.05 124.591 1095.04L124.591 1028.44C123.799 1028.47 123 1028.48 122.195 1028.48C105.994 1028.48 92.456 1023.04 81.5815 1012.17C70.9289 1001.51 65.6026 987.976 65.6026 971.554C65.6026 955.131 70.9289 941.482 81.5815 930.608C92.456 919.955 105.994 914.629 122.195 914.629C123 914.629 123.799 914.642 124.591 914.668L124.591 848.069ZM124.591 1158.22L5.70924 1158.22L5.70924 1224.8L124.591 1224.8L124.591 1158.22ZM124.591 1351.94L94.2585 1368.51L5.70868 1368.51L5.70868 1435.09L94.2585 1435.09L124.591 1451.65L124.591 1351.94ZM124.591 1537.25L5.70869 1537.25L5.70869 1603.83L71.6217 1603.83L71.6217 1630.46C71.6217 1654.65 79.1673 1674.84 94.2585 1691.05C102.811 1700.09 112.922 1706.62 124.591 1710.61L124.591 1537.25ZM124.591 1741.87L5.70868 1741.87L5.70867 1895L66.9612 1895L66.9612 1808.45L92.927 1808.45L92.927 1885.01L124.591 1885.01L124.591 1741.87Z" fill="black"/>
</svg>
