<svg width="123" height="1934" viewBox="0 0 123 1934" fill="none" xmlns="http://www.w3.org/2000/svg">
<path fill-rule="evenodd" clip-rule="evenodd" d="M0.571724 865.786C34.5943 866.355 63.2196 878.475 86.4474 902.146C110.475 926.626 122.488 956.547 122.488 991.908C122.488 1027.27 110.475 1057.08 86.4474 1081.33C63.2196 1105.22 34.5943 1117.45 0.571713 1118.03L0.571716 1050.01C15.9932 1049.46 28.8647 1043.93 39.1864 1033.39C50.2933 1022.51 55.8468 1008.68 55.8468 991.908C55.8468 975.134 50.2933 961.194 39.1864 950.087C28.8647 939.765 15.9932 934.339 0.571721 933.81L0.571724 865.786ZM0.571727 801.268L51.1056 801.268L51.1056 857.369L117.067 857.369L117.067 677.165L51.1056 677.165L51.1056 733.266L0.57173 733.266L0.571727 801.268ZM0.571733 668.684C34.5943 668.109 63.2196 655.876 86.4474 631.984C110.475 607.731 122.488 577.923 122.488 542.562C122.488 507.202 110.475 477.281 86.4474 452.8C63.2196 429.13 34.5943 417.01 0.571744 416.441L0.571741 484.464C15.9932 484.994 28.8647 490.42 39.1864 500.742C50.2933 511.848 55.8468 525.789 55.8468 542.562C55.8468 559.336 50.2933 573.163 39.1864 584.043C28.8647 594.58 15.9932 600.119 0.571736 600.66L0.571733 668.684ZM0.571745 387.08C10.6274 391.92 21.6843 394.339 33.7424 394.339C58.903 394.339 79.0768 385.839 94.2638 368.839C109.677 351.838 117.384 330.304 117.384 304.237L117.384 209.035L0.571753 209.035L0.571745 387.08ZM0.571754 177.097C9.96842 180.302 20.3529 181.904 31.7252 181.904C57.5657 181.904 78.1929 173.631 93.6066 157.084C109.247 140.536 117.067 119.909 117.067 95.2021L117.067 -2.36967e-07L0.571762 -5.32914e-06L0.571754 177.097ZM0.571678 1924.81L29.3451 1924.81L29.3451 1846.61L55.1857 1846.61L55.1857 1933.31L117.067 1933.31L117.067 1778.6L0.571684 1778.6L0.571678 1924.81ZM0.571686 1746.84C9.96837 1750.05 20.3529 1751.65 31.7252 1751.65C57.5657 1751.65 78.1929 1743.37 93.6066 1726.83C109.247 1710.28 117.067 1689.65 117.067 1664.95L117.067 1569.74L0.571693 1569.74L0.571686 1746.84ZM0.571697 1482.31L117.067 1545.92L117.067 1470.44L33.4252 1431.34L117.067 1392.24L117.067 1316.76L0.571702 1380.37L0.571697 1482.31ZM0.571707 1250.61L51.1056 1250.61L51.1056 1306.71L117.067 1306.71L117.067 1126.51L51.1056 1126.51L51.1056 1182.61L0.57171 1182.61L0.571707 1250.61ZM17.4448 1678.21C14.0448 1674.58 12.3447 1670.16 12.3447 1664.95L12.3447 1637.74L51.1056 1637.74L51.1056 1664.95C51.1056 1670.16 49.2922 1674.58 45.6655 1678.21C42.2654 1681.83 37.6186 1683.65 31.7252 1683.65C25.8317 1683.65 21.0716 1681.83 17.4448 1678.21ZM10.6219 277.036L54.8229 277.036L54.8229 302.877C54.8229 310.131 52.7828 315.797 48.7027 319.877C44.8493 324.184 39.4092 326.338 32.3824 326.338C25.3555 326.338 19.9154 324.184 16.062 319.877C12.2086 315.797 10.3952 310.131 10.6219 302.877L10.6219 277.036ZM12.3447 95.2021C12.3447 100.416 14.0448 104.836 17.4448 108.462C21.0716 112.089 25.8317 113.903 31.7252 113.903C37.6186 113.903 42.2654 112.089 45.6655 108.462C49.2922 104.836 51.1056 100.416 51.1056 95.2021L51.1056 68.0015L12.3447 68.0015L12.3447 95.2021Z" fill="black"/>
</svg>
